#!OML:ASF E:\Mandelcareful walks\Project 1\Capture day 1\Session 1\Subject1.ASF
:FULLY-SPECIFIED
:DEGREES
1712
root -21.6346 15.8488 -3.04315 -537.488 35.6464 530.929
lowerback 29.2387 -2.52807 2.39717
upperback 6.55336 -0.925636 3.4058
thorax -8.73673 0.0506553 2.69904
lowerneck -26.8729 -8.59737 -9.29949
upperneck 31.1548 -11.7577 11.047
head 17.2765 -4.04306 3.89865
rclavicle 4.45278e-014 -2.70347e-014
rhumerus -24.6088 -14.6512 -65.3457
rradius 37.4468
rwrist -19.3919
rhand -13.6074 -22.0292
rfingers 7.12502
rthumb 12.5077 -51.6349
lclavicle 4.45278e-014 -2.70347e-014
lhumerus -24.5642 -14.4352 91.7052
lradius 42.2924
lwrist 23.9028
lhand -25.9418 -16.9767
lfingers 7.12502
lthumb 0.601929 13.0022
rfemur -40.1666 -18.801 21.9374
rtibia 49.3866
rfoot -22.124 -10.5526
rtoes 19.9348
lfemur -13.41 20.2317 -18.0986
ltibia 68.4067
lfoot -1.57724 2.83054
ltoes -23.9681
1713
root -21.5694 15.8451 -3.10771 -537.949 36.2194 530.866
lowerback 29.482 -2.45517 2.64115
upperback 6.5795 -0.74395 3.37138
thorax -8.83655 0.134526 2.45983
lowerneck -26.7342 -8.49932 -9.12803
upperneck 31.0173 -11.6405 10.9152
head 17.1267 -4.00301 3.83151
rclavicle 2.06736e-014 3.65764e-014
rhumerus -24.6087 -15.0437 -65.1888
rradius 37.2904
rwrist -19.2371
rhand -13.4517 -22.396
rfingers 7.12502
rthumb 12.6578 -51.9924
lclavicle 2.06736e-014 3.65764e-014
lhumerus -24.501 -14.5991 91.6959
lradius 41.8172
lwrist 23.8833
lhand -25.7919 -16.9339
lfingers 7.12502
lthumb 0.746737 13.0446
rfemur -39.3557 -18.7709 21.7583
rtibia 49.4009
rfoot -22.6033 -9.7772
rtoes 19.1799
lfemur -14.3745 20.0565 -17.8715
ltibia 70.1945
lfoot -1.11146 2.78886
ltoes -24.3665
1714
root -21.5127 15.8337 -3.17136 -538.478 36.9176 530.713
lowerback 29.5497 -2.37943 2.88756
upperback 6.69089 -0.577789 3.25103
thorax -8.75215 0.211252 2.12045
lowerneck -26.6265 -8.4402 -9.3236
upperneck 31.0846 -11.6284 11.3782
head 17.2024 -3.94866 4.09078
rclavicle -1.51076e-013 4.77083e-015
rhumerus -24.6416 -15.2985 -65.1646
rradius 37.2596
rwrist -19.2143
rhand -13.5392 -22.4225
rfingers 7.12502
rthumb 12.5733 -52.0241
lclavicle -1.51076e-013 4.77083e-015
lhumerus -24.5133 -14.7179 91.6565
lradius 41.4816
lwrist 23.7428
lhand -25.8756 -16.4689
lfingers 7.12502
lthumb 0.665856 13.5098
rfemur -38.6081 -18.7816 21.5447
rtibia 49.3835
rfoot -23.1897 -9.0386
rtoes 18.2113
lfemur -15.2172 19.9941 -17.864
ltibia 71.5079
lfoot -1.60308 2.81378
ltoes -25.8656
1715
root -21.4422 15.8265 -3.22847 -539.08 37.6832 530.668
lowerback 29.8956 -2.2825 2.78245
upperback 6.71882 -0.447974 3.32679
thorax -8.88879 0.279005 2.22663
lowerneck -26.3313 -8.58955 -9.4358
upperneck 31.112 -11.764 11.2283
head 17.1606 -4.04799 4.01235
rclavicle 5.24792e-014 -3.81667e-014
rhumerus -24.7459 -14.9366 -65.0851
rradius 37.3272
rwrist -19.402
rhand -13.7773 -22.0914
rfingers 7.12502
rthumb 12.3439 -51.707
lclavicle 5.24792e-014 -3.81667e-014
lhumerus -24.8851 -14.0119 91.8994
lradius 41.1144
lwrist 23.0731
lhand -25.9671 -16.3581
lfingers 7.12502
lthumb 0.577498 13.6209
rfemur -37.608 -18.5095 21.3782
rtibia 49.3843
rfoot -24.1305 -8.66462
rtoes 17.2348
lfemur -15.8994 20.0868 -17.6165
ltibia 72.5833
lfoot -2.40359 2.67266
ltoes -26.7334
1716
root -21.2561 15.8316 -3.25131 -540.455 38.0189 530.745
lowerback 30.8777 -1.95539 1.36174
upperback 7.01688 -0.284585 3.78383
thorax -9.00542 0.423631 3.52285
lowerneck -26.2155 -8.52829 -9.3766
upperneck 31.1342 -11.5807 10.8667
head 17.0721 -4.02621 3.88128
rclavicle -6.20208e-014 6.36111e-015
rhumerus -24.7113 -14.614 -65.1079
rradius 37.3139
rwrist -19.5028
rhand -14.1048 -21.7567
rfingers 7.12502
rthumb 12.0281 -51.3911
lclavicle -6.20208e-014 6.36111e-015
lhumerus -25.1789 -13.2516 92.1147
lradius 40.6654
lwrist 22.4275
lhand -25.6778 -16.9968
lfingers 7.12502
lthumb 0.856946 12.9813
rfemur -34.9859 -17.6622 21.2189
rtibia 49.3246
rfoot -25.3525 -8.92387
rtoes 18.3967
lfemur -15.0143 20.1296 -15.974
ltibia 73.0622
lfoot -3.0072 1.45387
ltoes -26.8938
1717
root -21.3362 15.8277 -3.35015 -539.537 39.1244 530.638
lowerback 30.0337 -2.22732 3.2241
upperback 6.61723 -0.261176 3.30581
thorax -9.07976 0.345606 1.88551
lowerneck -26.1679 -8.50799 -9.23078
upperneck 31.105 -11.5548 10.6908
head 17.0112 -4.02644 3.78053
rclavicle 1.17681e-013 -1.27222e-014
rhumerus -24.7752 -14.8858 -65.1738
rradius 37.2837
rwrist -19.5038
rhand -14.3167 -21.6389
rfingers 7.12502
rthumb 11.8237 -51.2851
lclavicle 1.17681e-013 -1.27222e-014
lhumerus -25.3576 -13.2755 92.2228
lradius 40.2715
lwrist 22.2203
lhand -25.4017 -17.7831
lfingers 7.12502
lthumb 1.12363 12.1937
rfemur -36.6325 -18.4287 21.3254
rtibia 49.3896
rfoot -24.3477 -7.33077
rtoes 18.852
lfemur -18.464 19.7018 -17.7671
ltibia 74.0413
lfoot -4.08966 2.72656
ltoes -26.4879
1718
root -21.2722 15.8304 -3.40835 -539.827 39.7903 530.773
lowerback 30.0858 -2.1985 3.43305
upperback 6.70228 -0.141956 3.36333
thorax -9.01078 0.40335 1.78524
lowerneck -26.0555 -8.45774 -9.43495
upperneck 31.0632 -11.4299 10.7895
head 16.9722 -3.99243 3.89035
rclavicle 2.22639e-014 -1.74931e-014
rhumerus -24.7365 -14.9731 -65.2517
rradius 37.3279
rwrist -19.6268
rhand -14.251 -21.6195
rfingers 7.12502
rthumb 11.8871 -51.262
lclavicle 2.22639e-014 -1.74931e-014
lhumerus -25.4952 -13.1534 92.3598
lradius 39.8586
lwrist 22.0003
lhand -25.6178 -17.6464
lfingers 7.12502
lthumb 0.914892 12.3314
rfemur -35.8658 -18.428 21.4186
rtibia 49.3894
rfoot -24.5865 -6.84411
rtoes 19.0188
lfemur -19.487 19.6664 -17.6458
ltibia 74.3095
lfoot -5.42084 2.66565
ltoes -26.8293
